<?xml version="1.0" encoding="utf-8"?>
<!-- Generator: Adobe Illustrator 16.0.0, SVG Export Plug-In . SVG Version: 6.00 Build 0)  -->
<!DOCTYPE svg PUBLIC "-//W3C//DTD SVG 1.1//EN" "http://www.w3.org/Graphics/SVG/1.1/DTD/svg11.dtd">
<svg version="1.1" id="Layer_1" xmlns="http://www.w3.org/2000/svg" xmlns:xlink="http://www.w3.org/1999/xlink" x="0px" y="0px"
	 width="132px" height="198px" viewBox="0 0 132 198" enable-background="new 0 0 132 198" xml:space="preserve">
<g>
	<polygon fill="#008C95" points="131,165.037 66,196.521 1,165.037 1,0 131,0 	"/>
	<g>
		<polygon fill="#FFFFFF" points="29.555,122.264 29.555,126.02 33.485,126.02 33.485,127.006 29.555,127.006 29.555,132 28.33,132 
			28.33,121.262 33.708,121.262 33.708,122.264 		"/>
		<path fill="#FFFFFF" d="M41.438,132c0-0.51,0.046-1.271,0.126-1.75l-0.032-0.016c-0.445,1.146-1.447,1.926-2.832,1.926
			c-1.812,0-2.37-1.145-2.37-2.545v-5.521h1.193v5.123c0,1.24,0.335,1.955,1.479,1.955c1.416,0,2.418-1.398,2.418-3.275v-3.803
			h1.194V132H41.438z"/>
		<path fill="#FFFFFF" d="M51.396,132v-5.121c0-1.24-0.334-1.959-1.479-1.959c-1.417,0-2.418,1.402-2.418,3.277V132h-1.192v-7.906
			h1.176c0,0.51-0.047,1.273-0.127,1.75l0.032,0.018c0.446-1.146,1.448-1.926,2.832-1.926c1.813,0,2.37,1.146,2.37,2.545V132H51.396
			z"/>
		<path fill="#FFFFFF" d="M61.051,132c0-0.477,0.048-1.24,0.144-1.717l-0.032-0.016c-0.445,1.127-1.447,1.875-2.72,1.875
			c-1.957,0-2.911-1.43-2.911-3.738c0-2.814,1.59-4.404,4.056-4.404c0.461,0,0.923,0.031,1.463,0.078v-3.689h1.178V132H61.051z
			 M61.051,125.129c-0.54-0.127-1.049-0.191-1.559-0.191c-1.623,0-2.705,0.986-2.705,3.373c0,1.781,0.605,2.848,1.909,2.848
			c1.576,0,2.354-1.846,2.354-3.248V125.129z"/>
		<path fill="#FFFFFF" d="M70.149,132c0-0.605,0-1.209,0.08-1.67h-0.031c-0.383,1.002-1.399,1.812-2.753,1.812
			c-1.256,0-2.162-0.666-2.162-1.922c0-1.656,1.717-2.801,4.805-2.801v-0.652c0-1.193-0.431-1.861-1.798-1.861
			c-0.764,0-1.719,0.238-2.419,0.684l-0.111-1.049c0.747-0.334,1.669-0.59,2.736-0.59c2.18,0,2.799,1.08,2.799,2.576v3.104
			c0,0.781,0,1.67,0.033,2.369H70.149z M70.088,128.295c-2.977,0-3.612,0.938-3.612,1.701c0,0.717,0.509,1.176,1.288,1.176
			c1.4,0,2.324-1.383,2.324-2.75V128.295z"/>
		<path fill="#FFFFFF" d="M77.674,132.096c-1.766,0-3.42-0.779-3.42-3.77c0-2.594,1.305-4.342,3.882-4.342
			c0.652,0,1.304,0.094,1.861,0.271l-0.127,1.047c-0.526-0.207-1.146-0.35-1.815-0.35c-1.701,0-2.544,1.258-2.544,3.168
			c0,1.619,0.509,2.957,2.419,2.957c0.7,0,1.462-0.176,1.987-0.445l0.111,1.033C79.504,131.873,78.645,132.096,77.674,132.096z"/>
		<path fill="#FFFFFF" d="M83.402,122.662c-0.462,0-0.827-0.35-0.827-0.811c0-0.445,0.365-0.811,0.827-0.811
			c0.444,0,0.827,0.365,0.827,0.811C84.229,122.312,83.847,122.662,83.402,122.662z M82.797,132v-7.906h1.194V132H82.797z"/>
		<path fill="#FFFFFF" d="M90.386,132.143c-2.117,0-3.484-1.287-3.484-4.057c0-2.256,1.398-4.135,3.77-4.135
			c1.925,0,3.499,1.066,3.499,3.959C94.17,130.268,92.723,132.143,90.386,132.143z M90.56,124.938c-1.241,0-2.418,0.938-2.418,3.055
			c0,2.02,0.874,3.135,2.418,3.135c1.241,0,2.37-0.957,2.37-3.135C92.93,126.082,92.135,124.938,90.56,124.938z M90.257,122.791
			l-0.525-0.67l2.069-1.766l0.652,0.828L90.257,122.791z"/>
		<path fill="#FFFFFF" d="M102.188,132v-5.121c0-1.24-0.333-1.959-1.48-1.959c-1.414,0-2.417,1.402-2.417,3.277V132h-1.193v-7.906
			h1.177c0,0.51-0.048,1.273-0.127,1.75l0.031,0.018c0.445-1.146,1.448-1.926,2.832-1.926c1.813,0,2.371,1.146,2.371,2.545V132
			H102.188z"/>
		<path fill="#FFFFFF" d="M23.778,146.059l-4.514-7.199c-0.481-0.787-0.883-1.51-1.236-2.215c0.047,1.234,0.096,4.207,0.096,6.088
			v3.326h-1.206v-10.846h1.64l4.435,7.037c0.465,0.756,0.915,1.559,1.332,2.314c-0.063-1.447-0.111-4.402-0.111-6.379v-2.973h1.204
			v10.846H23.778z"/>
		<path fill="#FFFFFF" d="M34.977,141.818h-5.334c-0.08,2.393,0.868,3.389,2.652,3.389c0.835,0,1.719-0.209,2.313-0.514l0.112,1.027
			c-0.738,0.305-1.639,0.482-2.634,0.482c-2.41,0-3.696-1.303-3.696-4.098c0-2.393,1.286-4.176,3.503-4.176
			c2.201,0,3.116,1.527,3.116,3.293C35.008,141.367,35.008,141.576,34.977,141.818z M31.829,138.846
			c-1.126,0-1.929,0.818-2.122,2.07h4.049C33.788,139.68,33.049,138.846,31.829,138.846z"/>
		<path fill="#FFFFFF" d="M43.219,146.059c0-0.514,0.047-1.285,0.128-1.768l-0.032-0.016c-0.45,1.156-1.461,1.943-2.86,1.943
			c-1.831,0-2.394-1.154-2.394-2.57v-5.576h1.206v5.174c0,1.254,0.336,1.977,1.494,1.977c1.43,0,2.441-1.414,2.441-3.311v-3.84
			h1.206v7.986H43.219z"/>
		<path fill="#FFFFFF" d="M58.209,146.059v-5.16c0-1.203-0.29-1.99-1.447-1.99c-1.221,0-2.394,1.271-2.394,3.342v3.809H53.18v-5.172
			c0-1.096-0.225-1.979-1.446-1.979c-1.317,0-2.394,1.383-2.394,3.342v3.809h-1.205v-7.986h1.189c0,0.516-0.032,1.27-0.129,1.768
			l0.032,0.018c0.45-1.174,1.495-1.945,2.812-1.945c1.816,0,2.202,1.303,2.234,1.912c0.289-0.756,1.156-1.912,2.78-1.912
			c1.494,0,2.361,0.803,2.361,2.604v5.543H58.209z"/>
		<path fill="#FFFFFF" d="M65.871,146.203c-2.137,0-3.518-1.303-3.518-4.098c0-2.281,1.414-4.176,3.808-4.176
			c1.945,0,3.535,1.078,3.535,3.998C69.695,144.307,68.232,146.203,65.871,146.203z M66.049,138.926
			c-1.253,0-2.442,0.945-2.442,3.084c0,2.041,0.885,3.164,2.442,3.164c1.252,0,2.395-0.963,2.395-3.164
			C68.443,140.08,67.639,138.926,66.049,138.926z"/>
		<rect x="72.651" y="134.33" fill="#FFFFFF" width="1.205" height="11.729"/>
		<path fill="#FFFFFF" d="M80.315,146.203c-2.139,0-3.519-1.303-3.519-4.098c0-2.281,1.413-4.176,3.808-4.176
			c1.942,0,3.535,1.078,3.535,3.998C84.14,144.307,82.677,146.203,80.315,146.203z M80.492,138.926
			c-1.253,0-2.443,0.945-2.443,3.084c0,2.041,0.884,3.164,2.443,3.164c1.252,0,2.394-0.963,2.394-3.164
			C82.886,140.08,82.083,138.926,80.492,138.926z M80.187,136.754l-0.531-0.674l2.089-1.783l0.66,0.836L80.187,136.754z"/>
		<path fill="#FFFFFF" d="M89.649,150.252c-2.026,0-3.326-0.82-3.326-2.346c0-0.996,0.627-1.734,1.381-2.121
			c-0.497-0.227-0.802-0.645-0.802-1.154c0-0.549,0.32-1.047,0.883-1.303c-0.804-0.467-1.189-1.287-1.189-2.314
			c0-1.672,1.302-3.084,3.472-3.084c0.449,0,0.786,0.047,1.205,0.143h2.715v0.949h-1.446c0.466,0.369,0.771,0.994,0.771,1.752
			c0,1.701-1.172,3.004-3.47,3.004c-0.37,0-0.804-0.049-1.093-0.113c-0.402,0.145-0.594,0.434-0.594,0.723
			c0,0.467,0.45,0.678,1.446,0.678h1.558c1.733,0,2.684,0.848,2.684,2.246C93.843,148.998,92.108,150.252,89.649,150.252z
			 M90.823,146.105h-1.64c-0.161,0-0.369,0-0.516-0.018c-0.689,0.355-1.139,0.936-1.139,1.607c0,1.029,0.996,1.576,2.329,1.576
			c1.752,0,2.778-0.738,2.778-1.799C92.637,146.621,92.042,146.105,90.823,146.105z M90.001,138.859
			c-1.379,0-2.199,0.854-2.199,2.027c0,1.299,0.786,1.99,2.138,1.99c1.316,0,2.169-0.707,2.169-1.99
			C92.108,139.6,91.319,138.859,90.001,138.859z"/>
		<path fill="#FFFFFF" d="M97.441,136.627c-0.465,0-0.835-0.354-0.835-0.818c0-0.449,0.37-0.818,0.835-0.818
			c0.451,0,0.835,0.369,0.835,0.818C98.276,136.273,97.893,136.627,97.441,136.627z M96.83,146.059v-7.986h1.205v7.986H96.83z"/>
		<path fill="#FFFFFF" d="M104.462,146.154c-1.782,0-3.454-0.785-3.454-3.809c0-2.619,1.318-4.385,3.92-4.385
			c0.659,0,1.316,0.098,1.881,0.273l-0.13,1.061c-0.529-0.209-1.156-0.354-1.83-0.354c-1.72,0-2.571,1.268-2.571,3.197
			c0,1.639,0.513,2.986,2.442,2.986c0.707,0,1.478-0.176,2.007-0.447l0.115,1.043C106.31,145.93,105.442,146.154,104.462,146.154z"
			/>
		<path fill="#FFFFFF" d="M113.894,146.059c0-0.609,0-1.223,0.079-1.686h-0.03c-0.388,1.01-1.414,1.83-2.779,1.83
			c-1.271,0-2.188-0.674-2.188-1.945c0-1.668,1.736-2.826,4.854-2.826v-0.658c0-1.205-0.435-1.881-1.815-1.881
			c-0.772,0-1.735,0.242-2.442,0.691l-0.112-1.061c0.754-0.338,1.687-0.594,2.763-0.594c2.2,0,2.826,1.092,2.826,2.602v3.133
			c0,0.787,0,1.686,0.034,2.395H113.894z M113.829,142.314c-3.004,0-3.648,0.949-3.648,1.721c0,0.723,0.516,1.188,1.303,1.188
			c1.414,0,2.346-1.398,2.346-2.779V142.314z"/>
		<path fill="#FFFFFF" d="M31.657,158.154c-1.977,0-2.885-1.229-2.885-3.119c0-1.922,0.927-3.398,3.103-3.398
			c0.492,0,1.003,0.076,1.476,0.189l-0.076,0.672c-0.529-0.162-1.021-0.246-1.523-0.246c-1.551,0-2.195,1.211-2.195,2.668
			c0,1.645,0.729,2.592,2.29,2.592c0.493,0,1.107-0.143,1.505-0.34l0.075,0.643C32.936,158.023,32.32,158.154,31.657,158.154z"/>
		<path fill="#FFFFFF" d="M38.998,158.166c-1.911,0-2.829-1.279-2.829-3.209c0-2.146,1.353-3.348,2.998-3.348
			c1.731,0,2.82,1.152,2.82,3.207C41.987,156.955,40.634,158.166,38.998,158.166z M39.074,152.232c-1.126,0-2.129,0.918-2.129,2.594
			c0,1.598,0.691,2.705,2.129,2.705c1.116,0,2.138-0.908,2.138-2.602C41.212,153.217,40.426,152.232,39.074,152.232z"/>
		<polygon fill="#FFFFFF" points="45.354,158.08 45.354,151.693 46.083,151.693 46.083,157.467 48.448,157.467 48.448,158.08 		"/>
		<path fill="#FFFFFF" d="M53.585,158.166c-1.911,0-2.829-1.279-2.829-3.209c0-2.146,1.354-3.348,3-3.348
			c1.731,0,2.819,1.152,2.819,3.207C56.574,156.955,55.222,158.166,53.585,158.166z M53.661,152.232
			c-1.127,0-2.128,0.918-2.128,2.594c0,1.598,0.689,2.705,2.128,2.705c1.115,0,2.138-0.908,2.138-2.602
			C55.799,153.217,55.013,152.232,53.661,152.232z"/>
		<path fill="#FFFFFF" d="M66.139,158.08l-0.568-3.936c-0.113-0.775-0.16-1.25-0.198-1.6h-0.02c-0.066,0.266-0.16,0.635-0.312,1.068
			l-1.495,4.467h-0.823l-1.419-4.182c-0.161-0.463-0.331-0.965-0.405-1.354h-0.011c-0.028,0.512-0.095,1.021-0.17,1.676
			l-0.463,3.859h-0.747l0.908-6.387h0.917l1.458,4.314c0.16,0.463,0.293,0.889,0.359,1.24h0.02c0.094-0.436,0.188-0.721,0.35-1.174
			l1.495-4.381h0.946l0.946,6.387H66.139z"/>
		<path fill="#FFFFFF" d="M71.909,158.107c-0.387,0-0.992-0.02-1.543-0.027v-6.387c0.437-0.008,1.015-0.029,1.779-0.029
			c1.392,0,2.044,0.588,2.044,1.516c0,0.699-0.48,1.305-1.201,1.514v0.018c0.945,0.143,1.354,0.803,1.354,1.486
			C74.342,156.887,73.925,158.107,71.909,158.107z M72.014,152.252c-0.312,0-0.644,0.01-0.916,0.02v2.223
			c0.197,0.01,0.357,0.01,0.604,0.01c1.134,0,1.731-0.445,1.731-1.201C73.434,152.695,73.14,152.252,72.014,152.252z
			 M71.711,155.051c-0.112,0-0.464,0-0.613,0.012v2.404c0.169,0.025,0.453,0.055,0.868,0.055c1.126,0,1.619-0.559,1.619-1.305
			C73.585,155.318,72.762,155.051,71.711,155.051z"/>
		<rect x="77.887" y="151.693" fill="#FFFFFF" width="0.728" height="6.387"/>
		<path fill="#FFFFFF" d="M86.393,158.08l-0.56-1.57h-2.84l-0.566,1.57H81.68l2.375-6.387h0.783l2.378,6.387H86.393z
			 M84.708,153.416c-0.123-0.322-0.207-0.605-0.283-0.936h-0.02c-0.075,0.311-0.17,0.613-0.283,0.926l-0.929,2.523h2.442
			L84.708,153.416z"/>
		<path fill="#FFFFFF" d="M94.318,158.08l-2.656-4.24c-0.285-0.461-0.521-0.889-0.729-1.303c0.028,0.727,0.057,2.479,0.057,3.584
			v1.959h-0.711v-6.387h0.966l2.611,4.145c0.275,0.443,0.539,0.918,0.786,1.361c-0.039-0.852-0.067-2.594-0.067-3.756v-1.75h0.71
			v6.387H94.318z"/>
		<path fill="#FFFFFF" d="M103.061,158.08l-0.558-1.57h-2.837l-0.568,1.57H98.35l2.375-6.387h0.786l2.372,6.387H103.061z
			 M101.377,153.416c-0.122-0.322-0.209-0.605-0.283-0.936h-0.02c-0.075,0.311-0.171,0.613-0.284,0.926l-0.926,2.523h2.44
			L101.377,153.416z"/>
		<path fill="#FFFFFF" d="M62.131,67.834c-0.629,2.31-0.135,4.004,0.154,6.307c0.685,5.45-1.189,6.943-1.667,9.624
			C60.843,83.238,52.054,79.173,62.131,67.834z"/>
		<path fill="#FFFFFF" d="M61.222,58.386c0.381,2.325,0.921,4.129,0.188,7.002c-0.8,3.53-4.1,5.8-4.227,8.311
			c-0.542-4.058-1.173-8.298,1.262-11.274C59.415,61.096,60.428,60.215,61.222,58.386z"/>
		<path fill="#FFFFFF" d="M49.96,75.798c1.324,0.137,2.884-0.799,3.661-0.167c0.686,0.556,1.214,3.869,1.251,4.042
			c0.104,0.498,0.471,0.326,0.897,0.639c-0.357-0.369-1.542-4.673-2.254-5.886c-1.198-2.131-2.64-3.506-5.744-4.139
			c-0.69-0.173-4.015-0.32-4.125-0.473c1.296,1.831,1.56,5.168,5.944,5.932C49.714,75.768,49.839,75.785,49.96,75.798z"/>
		<path fill="#FFFFFF" d="M55.963,87.992c-4.934,0.97-7.097,3.784-8.641,8.561c0.953,0,3.941-0.856,5.414-2.063
			C56.126,91.712,55.963,87.992,55.963,87.992z"/>
		<path fill="#FFFFFF" d="M43.385,89.183c1.323-0.077,2.978,0.135,5.06-0.308c3.991-0.846,4.904-3.582,6.271-4.678
			C54.716,84.197,47.262,80.857,43.385,89.183z"/>
		<path fill="#FFFFFF" d="M38.454,81.724c-6.977-1.532-8.961,1.805-11.773,4.517c1.46,0.535,2.658,1.065,5.148,0.746
			c3.523-0.453,5.714-2.471,6.701-5.373L38.454,81.724z"/>
		<path fill="#FFFFFF" d="M55.579,95.063c-2.416,3.122-6.109,0.244-11.531,6.808c2.083,0.98,5.997,0.479,7.862-0.676
			C53.691,100.096,54.974,97.747,55.579,95.063z"/>
		<path fill="#FFFFFF" d="M42.902,86.125c-2.767,0.382-3.784-0.134-7.133,1.739c-2.281,1.275-3.742,4.532-5.642,5.727
			c2.793,0.672,4.48,0.477,7.033-0.5c3.122-1.195,4.686-4.358,5.825-7.075L42.902,86.125z"/>
		<path fill="#FFFFFF" d="M40.632,92.488c-2.127,1.545-3.189,3.188-4.306,6.562c2.555,0.125,3.186,0.287,5.475-0.549
			c3.238-1.186,4.569-6.08,6.739-8.087C48.54,90.413,43.822,90.167,40.632,92.488z"/>
		<path fill="#FFFFFF" d="M44.278,56.805c-2.316-1.802-4.161-2.197-7.787-2.171c1.001,2.179,2.59,4.25,3.193,4.746
			c3.464,2.847,5.632,3.415,7.645,5.559C46.99,62.114,46.312,58.386,44.278,56.805z"/>
		<path fill="#FFFFFF" d="M55.621,74.7c-0.323-7.945-0.114-12.407-6.872-15.57c0.164,3.196-0.551,5.965,1.753,9.624
			C52.689,72.182,55.201,71.615,55.621,74.7z"/>
		<path fill="#FFFFFF" d="M48.15,69.471c-2.771-5.787-7.214-9.413-15.101-8.74c1.379,2.426,2.73,6.142,7.663,7.349
			C43.86,68.55,45.856,68.184,48.15,69.471"/>
		<path fill="#FFFFFF" d="M55.561,62.118c-0.218-5.128,0.125-9.372-7.09-12.546c0.545,2.947,0.982,5.892,3.381,8.399
			C51.852,57.972,55.125,60.7,55.561,62.118z"/>
		<path fill="#FFFFFF" d="M60.274,47.26c-1.785,1.469-2.928,3.756-3.469,6.521c-0.615,3.141,0.738,5.126,0.288,8.012
			C57.54,61.261,63.226,55.841,60.274,47.26z"/>
		<path fill="#FFFFFF" d="M54.634,51.992c-0.606-4.081-1.554-9.726-9.113-9.305c0.903,2.486,1.759,4.41,3.615,5.647
			C50.832,49.464,53.203,50.367,54.634,51.992"/>
		<path fill="#FFFFFF" d="M57.382,41.444c3.057,3.846-1.239,9.286-1.243,9.714c-0.227-2.259-0.788-2.976-2.304-6.489
			c-1.537-3.563-0.747-4.693-1.253-6.313C53.252,38.591,55.244,38.756,57.382,41.444z"/>
		<path fill="#FFFFFF" d="M49.136,57.145c-0.904-1.356-0.227-8.133-9.231-8.684c0.729,2.396,2.13,5.53,4.713,6.99
			C44.618,55.451,47.781,57.033,49.136,57.145z"/>
		<path fill="#FFFFFF" d="M36.858,73.391c1.886,0.584,4.427,1.375,7.382,1.571c-3.122-1.554-1.929-3.937-5.024-6.106
			c-3.642-2.553-9.118-0.066-9.494-0.507C32.719,72.166,34.229,72.574,36.858,73.391z"/>
		<path fill="#FFFFFF" d="M46.966,82.993c2.301-1.522,4.216-4.875,6.404-4.45c-3.479-1.99-7.521-1.175-9.66,0.482
			c-2.4,1.863-3.351,5.604-3.868,5.668C43.395,84.688,45.273,84.112,46.966,82.993z"/>
		<path fill="#FFFFFF" d="M44.453,76.81c-2.068,0-2.497-0.395-4.53-1.084c-5.646-2.561-9.814,0.805-11.185,1.472
			C34.431,81.293,37.971,80.013,44.453,76.81z"/>
		<path fill="#FFFFFF" d="M68.274,67.834c0.631,2.31,0.137,4.004-0.154,6.307c-0.687,5.45,1.19,6.943,1.667,9.624
			C69.563,83.238,78.353,79.173,68.274,67.834z"/>
		<path fill="#FFFFFF" d="M69.186,58.386c-0.381,2.325-0.923,4.129-0.189,7.002c0.8,3.53,4.101,5.8,4.228,8.311
			c0.541-4.058,1.174-8.298-1.263-11.274C70.991,61.096,69.979,60.215,69.186,58.386z"/>
		<path fill="#FFFFFF" d="M80.445,75.798c-1.323,0.137-2.881-0.799-3.661-0.167c-0.686,0.556-1.214,3.869-1.249,4.042
			c-0.106,0.498-0.474,0.326-0.899,0.639c0.358-0.369,1.544-4.673,2.256-5.886c1.198-2.131,2.641-3.506,5.742-4.139
			c0.69-0.173,4.018-0.32,4.127-0.473c-1.294,1.831-1.559,5.168-5.943,5.932C80.691,75.768,80.567,75.785,80.445,75.798z"/>
		<path fill="#FFFFFF" d="M74.442,87.992c4.935,0.97,7.097,3.784,8.641,8.561c-0.951,0-3.938-0.856-5.412-2.063
			C74.281,91.712,74.442,87.992,74.442,87.992z"/>
		<path fill="#FFFFFF" d="M87.021,89.183c-1.322-0.077-2.978,0.135-5.059-0.308c-3.992-0.846-4.904-3.582-6.274-4.678
			C75.688,84.197,83.146,80.857,87.021,89.183z"/>
		<path fill="#FFFFFF" d="M91.953,81.724c6.976-1.532,8.959,1.805,11.774,4.517c-1.461,0.535-2.66,1.065-5.149,0.746
			c-3.523-0.453-5.714-2.471-6.702-5.373L91.953,81.724z"/>
		<path fill="#FFFFFF" d="M74.829,95.063c2.414,3.122,6.109,0.244,11.53,6.808c-2.083,0.98-5.995,0.479-7.863-0.676
			C76.716,100.096,75.433,97.747,74.829,95.063z"/>
		<path fill="#FFFFFF" d="M87.505,86.125c2.766,0.382,3.784-0.134,7.133,1.739c2.281,1.275,3.743,4.532,5.641,5.727
			c-2.794,0.672-4.478,0.477-7.03-0.5c-3.123-1.195-4.687-4.358-5.826-7.075L87.505,86.125z"/>
		<path fill="#FFFFFF" d="M89.773,92.488c2.126,1.545,3.191,3.188,4.307,6.562c-2.554,0.125-3.187,0.287-5.475-0.549
			c-3.236-1.186-4.57-6.08-6.738-8.087C81.867,90.413,86.584,90.167,89.773,92.488z"/>
		<path fill="#FFFFFF" d="M86.127,56.805c2.318-1.802,4.163-2.197,7.789-2.171c-1.002,2.179-2.591,4.25-3.194,4.746
			c-3.464,2.847-5.634,3.415-7.645,5.559C83.417,62.114,84.095,58.386,86.127,56.805z"/>
		<path fill="#FFFFFF" d="M74.785,74.7c0.323-7.945,0.114-12.407,6.872-15.57c-0.163,3.196,0.553,5.965-1.753,9.624
			C77.718,72.182,75.076,72.174,74.785,74.7z"/>
		<path fill="#FFFFFF" d="M82.256,69.471c2.771-5.787,7.214-9.413,15.101-8.74c-1.379,2.426-2.729,6.142-7.661,7.349
			C86.547,68.55,84.551,68.184,82.256,69.471"/>
		<path fill="#FFFFFF" d="M74.845,62.118c0.22-5.128-0.122-9.372,7.09-12.546c-0.544,2.947-0.98,5.892-3.38,8.399
			C78.555,57.972,75.282,60.7,74.845,62.118z"/>
		<path fill="#FFFFFF" d="M70.132,47.26c1.785,1.469,2.929,3.756,3.469,6.521c0.617,3.141-0.737,5.126-0.285,8.012
			C72.866,61.261,67.182,55.841,70.132,47.26z"/>
		<path fill="#FFFFFF" d="M75.772,51.992c0.604-4.081,1.554-9.726,9.111-9.305c-0.902,2.486-1.759,4.41-3.612,5.647
			C79.576,49.464,77.204,50.367,75.772,51.992"/>
		<path fill="#FFFFFF" d="M73.026,41.444c-3.059,3.846,1.238,9.286,1.242,9.714c0.225-2.259,0.787-2.976,2.301-6.489
			c1.539-3.563,0.748-4.693,1.257-6.313C77.156,38.591,75.163,38.756,73.026,41.444z"/>
		<path fill="#FFFFFF" d="M81.271,57.145c0.902-1.356,0.226-8.133,9.231-8.684c-0.73,2.396-2.132,5.53-4.715,6.99
			C85.788,55.451,82.626,57.033,81.271,57.145z"/>
		<path fill="#FFFFFF" d="M93.549,73.391c-1.887,0.584-4.427,1.375-7.383,1.571c3.122-1.554,1.929-3.937,5.022-6.106
			c3.642-2.553,9.121-0.066,9.497-0.507C97.688,72.166,96.18,72.574,93.549,73.391z"/>
		<path fill="#FFFFFF" d="M83.44,82.993c-2.301-1.522-4.215-4.875-6.404-4.45c3.479-1.99,7.523-1.175,9.66,0.482
			c2.4,1.863,3.352,5.604,3.868,5.668C87.011,84.688,85.134,84.112,83.44,82.993z"/>
		<path fill="#FFFFFF" d="M85.953,76.81c2.066,0,2.497-0.395,4.53-1.084c5.647-2.561,9.815,0.805,11.185,1.472
			C95.976,81.293,92.436,80.013,85.953,76.81z"/>
		<path fill="#FFFFFF" d="M77.524,82.534c-1.974,0.4-3.646,1.708-5.036,3.542c2.318-9.016,11.018-9.938,11.018-9.938
			c-5.406,0.278-8.792,3.344-10.703,6.604c-1.659,2.833-2.219,5.799-2.368,6.791c-0.009,0.021-0.02,0.043-0.029,0.062
			c0.436-3.178-0.542-7.345-1.825-9.411c0.774,1.733,1.19,3.054,1.1,4.502c-0.516,8.239-1.679,13.188-4.812,13.816
			c-2.741,0.548-4.26-12.247-4.093-14.235c0.121-1.446,0.323-2.77,1.096-4.504c-1.282,2.067-2.258,6.233-1.824,9.414
			c-0.009-0.022-0.019-0.042-0.028-0.064c-0.149-0.992-0.708-3.956-2.368-6.792c-1.911-3.261-5.298-6.328-10.704-6.604
			c0,0,8.698,0.921,11.018,9.936c-1.391-1.831-3.061-3.14-5.038-3.542c-1.289-0.25-2.835-0.42-4.08,0.179
			c7.717-0.848,12.587,18.355,12.417,25.08c-0.196,7.748-2.891,8.809-4.51,9.111c-0.125,0.023-0.247,0.041-0.37,0.059
			c3.035,0.195,6.475,0.291,9.533,0.266c0.405-0.006,7.387-0.393,7.481-0.121c-5.599-0.42-3.724-18.969-3.359-21.835
			c0.98-6.999,4.589-12.905,11.569-12.139C80.36,82.112,78.815,82.283,77.524,82.534z"/>
		<rect x="28.304" y="116.477" fill="#FFFFFF" width="75.052" height="0.631"/>
	</g>
</g>
</svg>
