<?xml version="1.0" encoding="utf-8"?>
<!-- Generator: Adobe Illustrator 16.0.0, SVG Export Plug-In . SVG Version: 6.00 Build 0)  -->
<!DOCTYPE svg PUBLIC "-//W3C//DTD SVG 1.1//EN" "http://www.w3.org/Graphics/SVG/1.1/DTD/svg11.dtd">
<svg version="1.1" id="OBJECTS" xmlns="http://www.w3.org/2000/svg" xmlns:xlink="http://www.w3.org/1999/xlink" x="0px" y="0px"
	 width="374px" height="383px" viewBox="0 0 374 383" enable-background="new 0 0 374 383" xml:space="preserve">
<g>
	<path fill="#008C95" d="M185.624,11.99c-10.072,0.139-17.035,8.098-24.933,13.15c-11.724,7.496-21.674,1.523-34.433,1.158
		c-10.393-0.299-15.706,4.74-21.377,12.838c-6.733,9.615-14.61,16.857-26.311,19.609c-7.505,1.766-17.843,2.09-22.215,9.607
		c-5.204,8.947-4.528,25.803-7.993,32.064c-3.465,6.26-26.838,17.232-28.029,27.459c-1.11,9.525,4.669,18.148,4.25,27.566
		c-0.458,10.314-9.562,17.668-13.929,26.443c-8.718,17.52,10.958,28.59,13.691,44.463c1.723,10.01-3.443,19.578-2.486,29.506
		c1.191,12.344,13.403,17.254,21.901,24.139c3.836,3.107,7.229,6.615,9.133,11.236c2.488,6.035,1.439,12.746,3.543,18.918
		c5.233,15.348,19.698,13.951,32.604,17.746c9.099,2.676,13.585,11.773,18.668,18.951c13.302,18.787,30.808,5.742,48.982,8.555
		c12.274,1.9,20.573,16.275,33.408,15.586c10.784-0.578,17.7-9.029,26.42-14.133c11.308-6.619,23.604,1.338,35.356,0.209
		c15.247-1.467,17.624-19.162,27.271-28.062c8.313-7.67,22.336-5.361,31.954-11.008c12.297-7.221,8.974-22.994,13.953-34.258
		c4.179-9.453,16.536-11.744,23.491-18.518c12.76-12.428-2.434-32.176,1.735-47.031c2.845-10.139,14.016-16.271,15.174-27.062
		c1.376-12.834-11.127-20.895-14.446-32.25c-3.683-12.604,5.326-25.217,1.215-37.766c-3.702-11.301-16.802-14.133-24.986-21.141
		c-11.227-9.619-5.834-25.998-15.278-36.336c-8.754-9.58-24.929-5.326-35.253-12.479c-10.131-7.021-14.149-22.186-25.673-27.186
		c-12.541-5.439-23.281,8.496-35.84,5.818C203.404,27.273,198.663,11.812,185.624,11.99z"/>
	<path fill="none" stroke="#000000" stroke-width="0" stroke-linecap="round" stroke-linejoin="round" d="M78.762,304.613
		c0.03,0,0.022,0.043-0.006,0.043"/>
	<g>
		<defs>
			<path id="SVGID_1_" d="M295.726,90.811C278.3,72.18,255.859,58.334,231.539,50.709c-26.458-8.293-56.294-9.229-82.894-0.963
				c-7.149,2.221-14.354,5.09-20.979,8.594c-6.818,3.604-13.598,7.824-19.744,12.49c-5.666,4.301-11.057,8.99-16.275,13.82
				c-23.949,22.168-42.772,50.719-49.875,83.057c-7.608,34.639,1.343,70.605,20.194,99.678c17.866,27.555,42.851,51.453,73.02,65
				c31.476,14.133,66.727,13.389,98.732,1.4c30.576-11.451,58.874-32.803,77.448-59.732
				C348.711,219.619,340.456,138.641,295.726,90.811z"/>
		</defs>
		<clipPath id="SVGID_2_">
			<use xlink:href="#SVGID_1_"  overflow="visible"/>
		</clipPath>
		<path clip-path="url(#SVGID_2_)" fill="#FFFFFF" stroke="#AEEAE3" stroke-miterlimit="10" d="M313.746,194.838
			c0.028-0.066,0.059-0.127,0.086-0.197c0.143-0.369-0.519-0.648-0.686-0.293c-0.014,0.027-0.023,0.057-0.039,0.084
			c-1.562,4.025-7.183,3.746-10.243,6.154c-1.391,1.094-2.395,2.98-2.566,4.74c-0.043,0.447,0.253,2.74,0.589,3.246
			c-1.075,0.416-2.25,1.07-3.261,1.879c0.641-2.33,0.939-4.695,1.193-7.172c0.128-1.24,0.229-2.482,0.316-3.727
			c0.463-0.916,0.903-1.838,1.471-2.711c0.765-1.178,2.829-3.195,2.909-3.23c3.374-1.445,7.083-0.15,9.856-3.113
			c3.642-3.891,1.335-9.547,3.205-14.074c0.136-0.33-0.382-0.576-0.609-0.355c-3.112,3.025-7.98,2.1-11.117,5.014
			c-2.716,2.525-3.771,8.541-1.372,11.602c-0.038,0.012-0.074,0.025-0.11,0.057c-1.483,1.305-3.024,2.979-4.104,4.822
			c0.283-5.273,0.209-10.564-0.288-15.824c-0.137-1.449-0.322-2.885-0.542-4.309c0.028-0.041,0.047-0.09,0.045-0.15
			c-0.121-2.508,0.199-5.248,1.561-7.385c3.288,0.971,6.416-2.271,7.331-3.289c4.181-4.641,0.689-10.354,1.515-15.697
			c0.071-0.459-0.562-0.646-0.743-0.217c-1.843,4.414-16.657,13.896-8.539,18.891c-1.017,1.053-1.579,2.723-1.794,4.387
			c-0.795-3.834-1.917-7.582-3.425-11.258c-0.435-1.061-0.903-2.129-1.401-3.191c0.087,0.006-0.313-2.141-0.319-2.229
			c-0.027-0.414-0.037-1.264,0.472-1.781c3.885-1.137,6.84-5.186,7.48-9.037c0.871-5.242-4.705-8.609-5.892-13.279
			c-0.085-0.334-0.649-0.387-0.737-0.029c-1.031,4.17-3.943,7.49-5.032,11.613c-0.541,2.047-0.288,4.156,0.308,6.156
			c0.251,0.842,0.591,1.584,1.032,2.342c0.312,0.541,1.336,2.535,1.381,2.553c-0.003,0.549,0.087,1.113,0.286,1.615
			c-1.742-3.332-3.896-6.469-6.762-8.836c-0.302-3.592,0.663-7.479-1.31-10.695c-3.186-5.197-10.772-4.975-14.746-9.354
			c-0.275-0.305-0.84,0.031-0.608,0.412c2.729,4.449,1,9.959,3.189,14.57c1.104,2.328,2.946,4.283,5.475,4.99
			c2.314,0.646,4.859-0.213,7.143,0.461c0.37,0.066,0.378,0.045,0.916,0.33c4.078,4.191,6.727,9.764,8.801,15.148
			c0.729,1.887,1.331,3.809,1.844,5.748c-0.876-0.994-1.849-1.836-2.943-2.578c-1.16-0.785-2.254-1.68-3.085-2.82
			c-0.931-1.279-1.394-2.82-2.297-4.113c-1.977-2.84-5.374-5.691-8.978-5.572c-2.041,0.066-3.595,0.16-5.448-0.832
			c0.58,1.885,0.983,3.764,1.242,5.719c0.229,1.723,0.455,3.488,1.465,4.955c2.025,2.939,5.441,3.713,8.717,2.699
			c0.893-0.275,1.761-0.623,2.641-0.938c0.689-0.246,1.73-0.951,2.464-0.625c1.48,0.658,2.876,1.865,4.083,2.908
			c0.915,0.793,1.573,1.861,2.506,2.602c0.938,3.906,1.499,7.898,1.819,11.934c0.171,2.152,0.255,4.312,0.277,6.471
			c-0.048-0.109-0.097-0.219-0.144-0.324c-0.339-0.76-0.72-1.502-1.154-2.213c-0.226-0.367-0.563-0.676-0.701-1.092
			c-0.213-0.643-0.027-1.504,0.012-2.168c0.046-0.766,0.073-1.535-0.047-2.295c-0.213-1.336-0.771-2.576-1.639-3.613
			c-1.864-2.236-4.764-3.469-7.545-4.082c-1.429-0.316-2.883-0.457-4.338-0.582c-1.43,2.426,0.456,5.752,1.93,7.721
			c1.055,1.408,2.529,2.508,4.083,3.307c0.845,0.438,1.735,0.723,2.673,0.867c0.959,0.148,1.952,0.16,2.888,0.434
			c1.961,0.578,2.847,2.672,3.44,4.441c0.2,0.6,0.517,1.17,0.542,1.814c0.115,3.006-0.189,6.092-0.443,9.082
			c-0.071,0.846-0.15,1.689-0.237,2.533c-0.312,3.029-0.86,5.76-1.867,8.529c-0.018,0.029-0.042,0.057-0.06,0.086
			c-0.036,0.057-0.041,0.115-0.03,0.166c-0.107,0.287-0.229,0.578-0.345,0.867c-0.266-1.395-0.864-2.766-1.415-4.039
			c-0.587-1.357-1.21-2.898-2.177-4.064c0.1,0.119,0.598-1.154,0.617-1.246c0.103-0.506,0.11-1.027,0.206-1.537
			c0.134-0.717,0.262-1.439,0.338-2.164c0.138-1.293,0.088-2.594-0.517-3.773c-0.723-1.404-2-2.484-3.213-3.459
			c-1.327-1.064-2.723-2.121-4.21-2.953c-0.603-0.336-1.631-0.928-1.88,0.064c-0.281,1.125,0.146,2.594,0.263,3.723
			c0.268,2.586-0.076,5.51,1,7.938c1.108,2.5,3.348,3.863,6.046,3.857c0.305-0.002,0.611-0.014,0.917-0.027
			c0,0,0.686,1.787,0.772,1.953c0.323,0.629,0.7,1.229,0.984,1.877c0.708,1.627,1.084,3.305,1.622,4.98
			c0.021,0.066,0.062,0.115,0.109,0.16c-1.165,2.678-2.338,5.352-2.543,8.307c-0.044,0.625,0.979,0.66,1.042,0.027
			c0.344-3.516,1.973-6.656,3.323-9.865c0.241-0.574,0.445-1.148,0.633-1.725c1.14-1.053,2.514-1.766,3.861-2.617
			c1.36,1.475,4.312,1.586,6.506,0.869C314.147,207.674,311.574,199.672,313.746,194.838z M307.063,180.391
			c2.771-1.396,5.883-1.277,8.421-3.01c-1.186,4.348,0.4,9.279-2.986,12.896c-1.442,1.539-3.535,1.736-5.513,1.838
			c-0.964,0.051-2.053,0.082-2.961,0.473C301.584,188.854,303.027,182.426,307.063,180.391z M279.041,148.162
			c-3.519-0.162-6.001-2.814-7.073-6.002c-1.295-3.85-0.526-8.027-1.931-11.791c3.947,3.066,9.585,3.559,12.769,7.584
			c2.455,3.104,0.688,7.041,1.415,10.551C282.577,147.959,280.766,148.24,279.041,148.162z M291.951,154.926
			c-0.018-0.027-1.368-2.35-1.73-3.254c-0.906-2.27-1.065-4.768-0.436-7.117c0.958-3.576,3.396-6.518,4.596-10.027
			c1.465,3.686,4.938,6.414,5.4,10.496C300.271,149.348,296.056,154.082,291.951,154.926z M284.521,166.867
			c-3.736,1.115-6.626,0.023-8.381-3.262c-1.09-2.039-1.368-4.369-1.648-6.605c-0.057-0.449-0.302-1.186-0.501-1.744
			c0.433,0.295,0.93,0.459,1.579,0.527c0.631,0.066,1.315-0.057,1.941-0.123c1.609-0.172,3.174,0.088,4.652,0.746
			c1.884,0.832,3.369,2.338,4.5,4.035c0.57,0.855,1.049,1.764,1.471,2.701c0.128,0.285,0.66,2.305,0.956,2.35
			C287.628,165.691,286.037,166.416,284.521,166.867z M299.865,169.09c-5.96-4.889,4.569-12.016,8.139-16.736
			c-0.083,3.939,1.433,7.785,0.02,11.691C307.488,165.525,302.641,171.369,299.865,169.09z M291.305,184.83
			c-1.622-0.299-3.105-1.182-4.377-2.197c-2.751-2.197-4.087-5.336-4.12-8.775c1.317,0.51,2.831,0.623,4.199,0.982
			c1.575,0.412,3.094,0.992,4.512,1.793c3.439,1.947,4.393,5.4,4.094,9.098C294.27,185.072,292.78,185.104,291.305,184.83z
			 M290.87,204.932c-1.157,0.951-3.423-0.229-4.508-1.379c-1.298-1.381-2.056-3.141-2.278-5.012
			c-0.319-2.691,0.348-5.314-0.145-7.936c2.416,2.256,6.24,2.996,7.581,6.217C292.387,198.9,292.737,203.129,290.87,204.932z
			 M304.418,209.584c-1.815-0.008-2.638-0.932-3.145-2.197c-0.332-0.832-0.625-1.164-0.39-2.176
			c0.363-1.523,1.727-3.477,2.182-3.914c1.267-1.215,3.056-1.781,4.684-2.307c1.704-0.555,3.4-1.125,4.644-2.252
			c-0.789,3.92-0.017,8.381-3.086,11.344C308.115,209.232,305.999,209.59,304.418,209.584z"/>
		<path clip-path="url(#SVGID_2_)" fill="#FFFFFF" stroke="#AEEAE3" stroke-miterlimit="10" d="M68.477,209.791
			c2.194,0.717,5.147,0.605,6.506-0.869c1.347,0.852,2.721,1.564,3.862,2.617c0.187,0.576,0.391,1.15,0.632,1.725
			c1.35,3.209,2.979,6.35,3.322,9.865c0.062,0.633,1.086,0.598,1.043-0.027c-0.207-2.955-1.38-5.629-2.544-8.307
			c0.048-0.045,0.088-0.094,0.109-0.16c0.538-1.676,0.914-3.354,1.623-4.98c0.284-0.648,0.661-1.248,0.984-1.877
			c0.086-0.166,0.771-1.953,0.771-1.953c0.306,0.014,0.612,0.025,0.917,0.027c2.697,0.006,4.938-1.357,6.045-3.857
			c1.076-2.428,0.731-5.352,1-7.938c0.118-1.129,0.544-2.598,0.263-3.723c-0.247-0.992-1.276-0.4-1.879-0.064
			c-1.487,0.832-2.883,1.889-4.21,2.953c-1.213,0.975-2.49,2.055-3.213,3.459c-0.604,1.18-0.654,2.48-0.517,3.773
			c0.077,0.725,0.204,1.447,0.339,2.164c0.095,0.51,0.103,1.031,0.205,1.537c0.02,0.092,0.518,1.365,0.617,1.246
			c-0.967,1.166-1.59,2.707-2.177,4.064c-0.551,1.273-1.148,2.645-1.414,4.039c-0.116-0.289-0.239-0.58-0.346-0.867
			c0.011-0.051,0.006-0.109-0.03-0.166c-0.017-0.029-0.042-0.057-0.06-0.086c-1.007-2.77-1.555-5.5-1.868-8.529
			c-0.086-0.844-0.166-1.688-0.237-2.533c-0.252-2.99-0.558-6.076-0.443-9.082c0.025-0.645,0.343-1.215,0.543-1.814
			c0.592-1.77,1.479-3.863,3.44-4.441c0.937-0.273,1.928-0.285,2.888-0.434c0.938-0.145,1.829-0.43,2.673-0.867
			c1.554-0.799,3.029-1.898,4.083-3.307c1.475-1.969,3.36-5.295,1.93-7.721c-1.455,0.125-2.909,0.266-4.338,0.582
			c-2.781,0.613-5.681,1.846-7.545,4.082c-0.867,1.037-1.425,2.277-1.639,3.613c-0.122,0.76-0.093,1.529-0.047,2.295
			c0.04,0.664,0.226,1.525,0.012,2.168c-0.137,0.416-0.474,0.725-0.7,1.092c-0.434,0.711-0.815,1.453-1.155,2.213
			c-0.047,0.105-0.095,0.215-0.144,0.324c0.023-2.158,0.106-4.318,0.278-6.471c0.32-4.035,0.881-8.027,1.819-11.934
			c0.932-0.74,1.59-1.809,2.505-2.602c1.207-1.043,2.602-2.25,4.083-2.908c0.734-0.326,1.775,0.379,2.465,0.625
			c0.88,0.314,1.748,0.662,2.641,0.938c3.275,1.014,6.692,0.24,8.716-2.699c1.011-1.467,1.237-3.232,1.465-4.955
			c0.258-1.955,0.662-3.834,1.242-5.719c-1.854,0.992-3.409,0.898-5.449,0.832c-3.604-0.119-7.001,2.732-8.978,5.572
			c-0.904,1.293-1.367,2.834-2.297,4.113c-0.832,1.141-1.926,2.035-3.086,2.82c-1.094,0.742-2.067,1.584-2.942,2.578
			c0.514-1.939,1.114-3.861,1.844-5.748c2.074-5.385,4.723-10.957,8.8-15.148c0.538-0.285,0.547-0.264,0.916-0.33
			c2.283-0.674,4.829,0.186,7.143-0.461c2.527-0.707,4.37-2.662,5.475-4.99c2.188-4.611,0.46-10.121,3.188-14.57
			c0.231-0.381-0.333-0.717-0.608-0.412c-3.974,4.379-11.56,4.156-14.746,9.354c-1.973,3.217-1.008,7.104-1.31,10.695
			c-2.866,2.367-5.021,5.504-6.762,8.836c0.198-0.502,0.289-1.066,0.286-1.615c0.045-0.018,1.069-2.012,1.382-2.553
			c0.44-0.758,0.78-1.5,1.031-2.342c0.597-2,0.85-4.109,0.309-6.156c-1.088-4.123-4.001-7.443-5.031-11.613
			c-0.088-0.357-0.653-0.305-0.738,0.029c-1.187,4.67-6.762,8.037-5.891,13.279c0.64,3.852,3.594,7.9,7.48,9.037
			c0.508,0.518,0.499,1.367,0.472,1.781c-0.006,0.088-0.407,2.234-0.319,2.229c-0.498,1.062-0.966,2.131-1.401,3.191
			c-1.508,3.676-2.629,7.424-3.425,11.258c-0.215-1.664-0.777-3.334-1.794-4.387c8.119-4.994-6.696-14.477-8.539-18.891
			c-0.181-0.43-0.814-0.242-0.743,0.217c0.826,5.344-2.666,11.057,1.516,15.697c0.915,1.018,4.042,4.26,7.33,3.289
			c1.363,2.137,1.683,4.877,1.562,7.385c-0.002,0.061,0.018,0.109,0.045,0.15c-0.221,1.424-0.405,2.859-0.542,4.309
			c-0.498,5.26-0.571,10.551-0.288,15.824c-1.079-1.844-2.62-3.518-4.104-4.822c-0.035-0.031-0.072-0.045-0.109-0.057
			c2.398-3.061,1.343-9.076-1.372-11.602c-3.137-2.914-8.004-1.988-11.117-5.014c-0.227-0.221-0.745,0.025-0.609,0.355
			c1.869,4.527-0.438,10.184,3.204,14.074c2.773,2.963,6.482,1.668,9.856,3.113c0.081,0.035,2.145,2.053,2.909,3.23
			c0.567,0.873,1.007,1.795,1.47,2.711c0.088,1.244,0.188,2.486,0.316,3.727c0.254,2.477,0.553,4.842,1.193,7.172
			c-1.01-0.809-2.186-1.463-3.261-1.879c0.336-0.506,0.632-2.799,0.59-3.246c-0.171-1.76-1.176-3.646-2.566-4.74
			c-3.06-2.408-8.68-2.129-10.243-6.154c-0.016-0.027-0.025-0.057-0.039-0.084c-0.166-0.355-0.829-0.076-0.686,0.293
			c0.026,0.07,0.057,0.131,0.086,0.197C64.568,199.672,61.995,207.674,68.477,209.791z M72.118,192.588
			c-0.909-0.391-1.997-0.422-2.961-0.473c-1.978-0.102-4.07-0.299-5.513-1.838c-3.386-3.617-1.8-8.549-2.986-12.896
			c2.538,1.732,5.651,1.613,8.421,3.01C73.114,182.426,74.558,188.854,72.118,192.588z M91.922,148.504
			c0.727-3.51-1.041-7.447,1.415-10.551c3.184-4.025,8.821-4.518,12.769-7.584c-1.404,3.764-0.636,7.941-1.931,11.791
			c-1.071,3.188-3.554,5.84-7.073,6.002C95.376,148.24,93.565,147.959,91.922,148.504z M76.361,145.023
			c0.461-4.082,3.935-6.811,5.4-10.496c1.2,3.51,3.638,6.451,4.596,10.027c0.629,2.35,0.471,4.848-0.436,7.117
			c-0.363,0.904-1.713,3.227-1.73,3.254C80.085,154.082,75.872,149.348,76.361,145.023z M87.053,165.492
			c0.296-0.045,0.828-2.064,0.956-2.35c0.423-0.938,0.901-1.846,1.471-2.701c1.131-1.697,2.616-3.203,4.5-4.035
			c1.478-0.658,3.043-0.918,4.652-0.746c0.625,0.066,1.31,0.189,1.941,0.123c0.648-0.068,1.146-0.232,1.579-0.527
			c-0.2,0.559-0.444,1.295-0.501,1.744c-0.281,2.236-0.558,4.566-1.648,6.605c-1.755,3.285-4.645,4.377-8.381,3.262
			C90.105,166.416,88.514,165.691,87.053,165.492z M68.119,164.045c-1.414-3.906,0.103-7.752,0.019-11.691
			c3.57,4.721,14.099,11.848,8.139,16.736C73.5,171.369,68.655,165.525,68.119,164.045z M80.529,185.73
			c-0.3-3.697,0.653-7.15,4.093-9.098c1.417-0.801,2.938-1.381,4.512-1.793c1.368-0.359,2.882-0.473,4.199-0.982
			c-0.032,3.439-1.369,6.578-4.119,8.775c-1.272,1.016-2.755,1.898-4.377,2.197C83.362,185.104,81.873,185.072,80.529,185.73z
			 M84.623,196.822c1.341-3.221,5.164-3.961,7.581-6.217c-0.492,2.621,0.175,5.244-0.145,7.936
			c-0.222,1.871-0.979,3.631-2.278,5.012c-1.084,1.15-3.351,2.33-4.508,1.379C83.405,203.129,83.755,198.9,84.623,196.822z
			 M66.833,208.082c-3.069-2.963-2.297-7.424-3.085-11.344c1.245,1.127,2.94,1.697,4.645,2.252c1.628,0.525,3.417,1.092,4.683,2.307
			c0.456,0.438,1.819,2.391,2.182,3.914c0.235,1.012-0.058,1.344-0.39,2.176c-0.506,1.266-1.329,2.189-3.144,2.197
			C70.144,209.59,68.027,209.232,66.833,208.082z"/>
		<g clip-path="url(#SVGID_2_)">
			<path fill="#27AAE2" stroke="#FFFFFF" stroke-miterlimit="10" d="M268.57,259.957c-0.347-0.191-0.774-0.273-1.166-0.326
				c-0.466-0.064-0.894-0.047-1.316,0.016c-0.108-0.041-0.237-0.053-0.391-0.008c-6.278,1.764-12.181,2.768-17.762,6.445
				c-3.133,2.064-6.018,4.371-9.457,5.938c-3.918,1.785-8.352,1.912-12.566,2.295c-6.98,0.635-13.934,0.086-20.382,3.375
				c-4.492,2.295-7.667,6.059-10.04,10.43c-2.91,5.359-4.14,11.438-6.826,16.912c-3.38,6.889-8.261,13.029-12.607,19.318
				c-4.199,6.078-7.949,12.457-12.113,18.564c-4.215,6.184-9.135,12.43-11.971,19.404c-0.172,0.426,0.458,0.695,0.708,0.35
				c4.185-5.793,7.802-12.045,11.836-17.953c4.189-6.137,8.048-12.461,12.117-18.67c3.469-5.295,7.218-10.393,10.437-15.848
				c3.369-5.711,4.979-11.752,7.29-17.879c2.097-5.564,5.409-10.609,10.689-13.574c6.876-3.855,15.811-2.908,23.357-3.094
				c6.443-0.156,11.871-2.279,17.083-5.918c3.061-2.139,5.938-4.246,9.399-5.727c3.567-1.525,7.329-2.086,11.011-3.135
				c0.233-0.066,0.376-0.217,0.455-0.387c1.941,0.092,3.776,0.389,3.542,2.93c-0.17,1.826-1.276,3.662-2.22,5.184
				c-2.549,4.104-6.571,7.064-10.447,9.822c-10.712,7.629-22.89,13.396-32.65,22.34c-0.477,0.439,0.145,1.094,0.628,0.709
				c6.523-5.186,13.273-9.984,20.312-14.451c6.787-4.307,13.646-8.436,19.658-13.818c2.667-2.389,5.083-6.15,5.706-9.699
				C271.253,261.402,270.107,260.314,268.57,259.957z"/>
			<path fill="#27AAE2" stroke="#FFFFFF" stroke-miterlimit="10" d="M299.153,225.123c0.343-0.416,0.242-1.062-0.004-1.535
				c-0.299-0.57-0.974-0.758-1.568-0.783c-1.567-0.068-3.162,0.762-4.399,1.639c-0.203,0.145,0.011,0.393,0.21,0.318
				c1.053-0.385,2.138-0.793,3.233-1.029c0.486-0.107,1.081-0.197,1.53,0.07c0.037,0.021,0.062,0.051,0.089,0.078
				c-0.013,0.035-0.048,0.057-0.047,0.102c0.036,3.623-0.674,7.068-1.733,10.438c-0.018-0.018-0.036-0.027-0.053-0.045
				c-0.461-0.439-0.637-1.125-0.758-1.727c-0.219-1.096,0.02-2.191-0.133-3.279c-0.015-0.109-0.098-0.178-0.193-0.215
				c0.006-0.037,0.014-0.074,0.021-0.111c0.096-0.553,0.359-1.092,0.254-1.656c-0.03-0.16-0.249-0.242-0.375-0.129
				c-0.795,0.713-0.824,1.984-0.732,3.061c-0.232,0.99-0.128,2.145,0.058,3.039c0.145,0.691,0.713,1.92,1.494,2.342
				c-1.293,3.793-2.971,7.498-4.458,11.24c-3.27,8.24-7.474,16.084-11.76,23.83c-3.468,6.27-7.142,12.352-9.974,18.941
				c-2.212,5.148-5.034,11.148-10.782,12.723c-0.032-0.223-0.219-0.412-0.533-0.354c-10.618,1.988-22.856,4.012-32.284,9.584
				c-8.241,4.871-14.183,12.436-19.147,20.473c-5.301,8.58-9.661,17.771-14.166,26.783c-5.765,11.525-11.821,23.234-15.449,35.643
				c-0.085,0.289,0.331,0.422,0.45,0.156c8.941-19.783,17.713-39.736,28.459-58.639c4.726-8.314,10.396-16.547,18.27-22.174
				c9.682-6.918,22.718-8.297,34.011-10.934c0.154-0.035,0.261-0.119,0.323-0.223c4.415-0.5,7.166-3.945,9.351-7.777
				c1.537-2.695,2.701-5.604,3.936-8.443c1.691-3.887,3.881-7.547,5.946-11.24c4.92-8.803,9.696-17.668,13.661-26.949
				c1.769-4.141,3.436-8.344,5.114-12.523c0.009-0.023,0.019-0.049,0.028-0.07c0.011-0.006,0.021-0.004,0.032-0.008
				c0.213-0.105,0.326-0.322,0.231-0.555c-0.007-0.016-0.021-0.027-0.03-0.045C298.498,231.957,299.416,228.533,299.153,225.123z"/>
			<path fill="#27AAE2" stroke="#FFFFFF" stroke-miterlimit="10" d="M292.609,224.387c-0.073-0.158-0.235-0.268-0.477-0.207
				c-2.309,0.574-3.913,2.463-5.431,4.186c-2.346,2.658-4.224,5.521-5.859,8.658c-2.075,3.984-3.758,8.107-6.455,11.74
				c-2.663,3.582-6.18,6.396-9.223,9.633c-0.152,0.16,0.112,0.338,0.264,0.23c5.611-4.035,10.17-9.094,13.35-15.236
				c1.88-3.629,3.462-7.367,5.729-10.791c1.689-2.549,4.611-6.697,7.689-7.523c1.945,2.314-8.258,29.035-9.427,32.768
				c-1.599,5.107-4.412,8.23-8.114,11.949c-3.677,3.693-5.927,8.256-8.203,12.881c-1.518,3.082-8.302,19.625-12.575,15.863
				c-0.493-0.434-1.393,0.113-0.905,0.693c4.516,5.354,10.625-8.391,11.9-11.115c2.477-5.293,4.932-10.9,8.451-15.584
				c1.95-2.596,4.688-4.457,6.719-6.994c1.543-1.928,2.533-4.219,3.349-6.527c2.494-7.049,5.064-14.109,7.472-21.193
				C291.289,236.564,295.399,225.385,292.609,224.387z"/>
			<path fill="#27AAE2" stroke="#FFFFFF" stroke-miterlimit="10" d="M261.624,272.867c-0.865,0.092-1.592,0.611-2.487,0.631
				c-0.833,0.016-1.484-0.498-1.918-1.166c-0.943-1.453-0.817-3.547-0.312-5.123c0.102-0.318-0.379-0.471-0.499-0.174
				c-0.757,1.869-1.121,4.447,0.19,6.182c1.189,1.572,4.108,1.838,5.378,0.188C262.183,273.133,261.921,272.838,261.624,272.867z"/>
			<path fill="#27AAE2" stroke="#FFFFFF" stroke-miterlimit="10" d="M290.404,228.506c-1.545,1.016-2.56,3.154-3.3,4.795
				c-0.025,0.059-0.019,0.107,0,0.148c-0.424,0.939-0.664,1.984-0.603,2.945c0.044,0.662,0.262,1.293,0.866,1.637
				c0.622,0.355,1.583,0.279,1.959-0.359c0.078-0.135,0.004-0.348-0.127-0.418c-0.391-0.211-0.845-0.018-1.206-0.238
				c-0.381-0.232-0.28-1.078-0.25-1.43c0.1-1.166,0.467-2.396,0.979-3.451c0.087-0.18-0.003-0.316-0.141-0.385
				c0.208-0.295,0.415-0.594,0.632-0.885c0.523-0.707,1.18-1.326,1.495-2.158C290.781,228.518,290.552,228.408,290.404,228.506z"/>
		</g>
		<g clip-path="url(#SVGID_2_)">
			<path fill="#27AAE2" stroke="#FFFFFF" stroke-miterlimit="10" d="M114.934,276.531c-3.701-2.992-7.534-6.189-9.828-10.441
				c-0.85-1.574-1.842-3.479-1.899-5.311c-0.08-2.551,1.771-2.734,3.713-2.705c0.068,0.174,0.203,0.332,0.431,0.41
				c3.611,1.275,7.332,2.061,10.799,3.803c3.364,1.689,6.107,3.969,9.032,6.287c4.981,3.951,10.269,6.402,16.69,6.951
				c7.52,0.645,16.496,0.246,23.125,4.516c5.09,3.281,8.087,8.516,9.842,14.199c1.931,6.26,3.169,12.385,6.185,18.291
				c0.112,0.221,0.238,0.434,0.352,0.654c0.395-0.02,0.801-0.033,1.213-0.035c-1.037-1.918-2.004-3.867-2.841-5.873
				c-2.347-5.627-3.203-11.768-5.781-17.295c-2.102-4.51-5.041-8.461-9.384-11.023c-6.235-3.678-13.21-3.555-20.138-4.615
				c-4.183-0.639-8.6-1.037-12.402-3.057c-3.337-1.775-6.076-4.252-9.077-6.506c-5.345-4.01-11.176-5.371-17.334-7.516
				c-0.152-0.053-0.281-0.051-0.391-0.016c-0.417-0.09-0.844-0.131-1.312-0.098c-0.394,0.031-0.827,0.088-1.185,0.258
				c-1.556,0.262-2.766,1.277-2.527,3.396c0.406,3.58,2.587,7.48,5.104,10.027c5.672,5.738,12.267,10.277,18.777,14.992
				c6.752,4.889,13.197,10.092,19.391,15.666c0.459,0.412,1.12-0.205,0.67-0.67C136.963,291.301,125.161,284.799,114.934,276.531z"
				/>
			<path fill="#27AAE2" stroke="#FFFFFF" stroke-miterlimit="10" d="M164.644,340.711c0.096-0.312,0.258-0.553,0.458-0.734
				c-1.088-2.283-2.221-4.545-3.415-6.771c-4.465-8.326-9.935-16.238-17.862-21.602c-9.069-6.139-21.161-8.904-31.639-11.539
				c-0.31-0.078-0.507,0.102-0.554,0.32c-5.641-1.92-8.091-8.082-9.985-13.355c-2.424-6.75-5.72-13.045-8.799-19.516
				c-3.805-7.992-7.522-16.078-10.284-24.502c-1.255-3.828-2.704-7.629-3.763-11.494c0.806-0.373,1.447-1.562,1.634-2.244
				c0.241-0.883,0.414-2.029,0.244-3.033c0.157-1.066,0.206-2.338-0.544-3.098c-0.119-0.119-0.344-0.055-0.383,0.105
				c-0.139,0.559,0.09,1.111,0.152,1.67c0.004,0.037,0.01,0.076,0.015,0.113c-0.099,0.031-0.185,0.092-0.207,0.201
				c-0.218,1.076-0.047,2.186-0.333,3.266c-0.157,0.592-0.374,1.264-0.862,1.678c-0.018,0.014-0.037,0.023-0.056,0.037
				c-0.851-3.424-1.349-6.908-1.092-10.521c0.003-0.043-0.03-0.066-0.041-0.104c0.03-0.025,0.056-0.053,0.094-0.072
				c0.465-0.238,1.052-0.115,1.532,0.021c1.078,0.305,2.136,0.779,3.164,1.227c0.195,0.086,0.423-0.148,0.229-0.305
				c-1.182-0.949-2.722-1.877-4.291-1.904c-0.594-0.01-1.28,0.133-1.613,0.688c-0.273,0.453-0.416,1.094-0.098,1.529
				c-0.471,3.389,0.237,6.863,1.264,10.111c-0.01,0.018-0.023,0.027-0.032,0.045c-0.11,0.225-0.011,0.447,0.197,0.566
				c0.01,0.004,0.021,0.004,0.031,0.01c0.009,0.023,0.016,0.049,0.024,0.074c1.42,4.271,2.828,8.57,4.34,12.811
				c3.39,9.506,7.616,18.646,11.99,27.732c1.835,3.812,3.797,7.6,5.248,11.584c1.06,2.908,2.045,5.883,3.414,8.666
				c1.947,3.959,4.482,7.564,8.858,8.336c0.057,0.105,0.157,0.197,0.31,0.242c11.11,3.316,24.038,5.488,33.28,12.986
				c7.515,6.098,12.672,14.66,16.882,23.248c0.641,1.307,1.25,2.627,1.872,3.943C164.203,340.947,164.408,340.797,164.644,340.711z"
				/>
			<path fill="#27AAE2" stroke="#FFFFFF" stroke-miterlimit="10" d="M82.921,220.438c0.083-0.154,0.25-0.256,0.489-0.18
				c2.268,0.717,3.755,2.699,5.165,4.51c2.179,2.795,3.879,5.768,5.32,9.002c1.828,4.102,3.256,8.322,5.726,12.109
				c2.439,3.74,5.777,6.764,8.618,10.18c0.141,0.17-0.134,0.332-0.278,0.213c-5.355-4.367-9.597-9.697-12.395-16.021
				c-1.655-3.74-3.006-7.564-5.06-11.121c-1.529-2.646-4.194-6.967-7.215-7.979c-2.083,2.189,6.47,29.484,7.409,33.281
				c1.284,5.193,3.901,8.484,7.37,12.424c3.443,3.908,5.412,8.602,7.402,13.355c1.327,3.17,7.088,20.096,11.583,16.602
				c0.518-0.4,1.383,0.201,0.86,0.748c-4.834,5.068-10.092-9.025-11.198-11.822c-2.149-5.434-4.257-11.18-7.483-16.068
				c-1.788-2.711-4.407-4.736-6.28-7.393c-1.423-2.018-2.271-4.365-2.945-6.719c-2.059-7.189-4.193-14.393-6.164-21.611
				C83.494,232.672,80.076,221.262,82.921,220.438z"/>
			<path fill="#27AAE2" stroke="#FFFFFF" stroke-miterlimit="10" d="M110.889,270.719c0.858,0.143,1.552,0.707,2.445,0.781
				c0.83,0.066,1.512-0.406,1.985-1.045c1.03-1.395,1.033-3.492,0.625-5.096c-0.083-0.326,0.406-0.447,0.508-0.145
				c0.642,1.912,0.847,4.508-0.567,6.16c-1.282,1.496-4.212,1.584-5.378-0.143C110.314,270.949,110.595,270.668,110.889,270.719z"/>
			<path fill="#27AAE2" stroke="#FFFFFF" stroke-miterlimit="10" d="M84.871,224.684c1.48,1.107,2.363,3.303,3.001,4.984
				c0.023,0.061,0.012,0.109-0.008,0.15c0.365,0.965,0.542,2.023,0.422,2.977c-0.084,0.658-0.34,1.277-0.964,1.582
				c-0.642,0.316-1.597,0.18-1.934-0.48c-0.07-0.137,0.018-0.346,0.153-0.408c0.403-0.188,0.845,0.031,1.217-0.164
				c0.396-0.207,0.346-1.061,0.337-1.41c-0.027-1.172-0.32-2.424-0.767-3.506c-0.077-0.186,0.021-0.316,0.164-0.373
				c-0.19-0.311-0.378-0.619-0.578-0.926c-0.479-0.736-1.097-1.393-1.36-2.242C84.494,224.67,84.729,224.576,84.871,224.684z"/>
		</g>
	</g>
	<path fill="#FFFFFF" stroke="#FFFFFF" stroke-miterlimit="10" d="M295.726,90.416c-17.425-18.633-39.866-32.479-64.187-40.102
		c-26.458-8.295-56.294-9.232-82.894-0.965c-7.149,2.221-14.354,5.092-20.979,8.594c-6.818,3.604-13.598,7.824-19.744,12.49
		c-5.666,4.303-11.057,8.988-16.275,13.82c-23.949,22.168-42.772,50.717-49.875,83.055c-7.608,34.639,1.343,70.607,20.194,99.68
		c17.866,27.553,42.851,51.455,73.02,65c31.476,14.133,66.727,13.389,98.732,1.4c30.576-11.451,58.874-32.805,77.448-59.734
		C348.711,219.223,340.456,138.244,295.726,90.416z M250.045,324.355c-31.641,16.5-68.497,21.852-102.756,10.668
		c-32.562-10.627-59.983-34.85-79.528-62.438c-21.032-29.689-31.579-66.393-24.817-102.943
		c6.316-34.143,27.495-65.387,53.003-88.004c27.606-24.477,61.816-37.525,98.304-35.74c13.414,0.656,27.118,2.127,39.758,6.736
		c12.962,4.727,25.423,10.891,36.868,18.611c27.995,18.887,47.431,47.1,56.472,79.502c9.361,33.547,8.015,71.316-6.669,103.145
		C306.491,284.646,279.76,308.859,250.045,324.355z"/>
	<path fill="none" d="M60.465,130.432c0,0,65.256-31.039,124.146-31.039c58.891,0,128.922,31.039,128.922,31.039"/>
	<text transform="matrix(0.9536 -0.301 0.301 0.9536 101.0498 114.6992)"><tspan x="0" y="0" fill="#FFFFFF" font-family="'Roboto-Medium'" font-size="26.9188">·</tspan><tspan x="7.449" y="-0.088" fill="#FFFFFF" font-family="'Roboto-Medium'" font-size="26.9188" rotate="1.869">D</tspan><tspan x="24.888" y="0.455" fill="#FFFFFF" font-family="'Roboto-Medium'" font-size="26.9188" rotate="4.85">O</tspan><tspan x="42.923" y="1.944" fill="#FFFFFF" font-family="'Roboto-Medium'" font-size="26.9188" rotate="8.535">N</tspan><tspan x="61.501" y="4.727" fill="#FFFFFF" font-family="'Roboto-Medium'" font-size="26.9188" rotate="12.948">A</tspan><tspan x="78.036" y="8.487" fill="#FFFFFF" font-family="'Roboto-Medium'" font-size="26.9188" rotate="18.176">C</tspan><tspan x="93.961" y="13.873" fill="#FFFFFF" font-family="'Roboto-Medium'" font-size="26.9188" rotate="21.797">I</tspan><tspan x="100.987" y="16.531" fill="#FFFFFF" font-family="'Roboto-Medium'" font-size="26.9188" rotate="24.947">O</tspan><tspan x="117.376" y="24.157" fill="#FFFFFF" font-family="'Roboto-Medium'" font-size="26.9188" rotate="28.613">N</tspan><tspan x="133.949" y="33.254" fill="#FFFFFF" font-family="'Roboto-Medium'" font-size="26.9188" rotate="31.386">E</tspan><tspan x="147.146" y="41.292" fill="#FFFFFF" font-family="'Roboto-Medium'" font-size="26.9188" rotate="33.623">S</tspan><tspan x="161.095" y="50.645" fill="#FFFFFF" font-family="'Roboto-Medium'" font-size="26.9188" rotate="35.151">·</tspan></text>
	<path fill="#FFFFFF" d="M251.771,216.525v-0.732c0-10.963-4.934-42.021-27.589-54.994c-5.482-3.107-11.876-3.107-17.357,0.182
		c-5.664,3.289-9.135,9.318-9.135,15.896v3.289c-2.192-0.73-5.116-1.828-8.039-2.193v-0.184v-46.59
		c8.77-1.098,12.059-7.125,12.241-7.492c0.731-1.279,0.183-2.924-1.096-3.652c-1.278-0.73-2.923-0.184-3.654,1.094
		c-0.183,0.184-2.741,4.752-10.049,4.752c-7.491,0-10.048-4.568-10.048-4.752c-0.731-1.277-2.375-1.824-3.655-1.277
		c-1.278,0.73-1.827,2.375-1.278,3.656c0.183,0.363,3.471,6.391,12.241,7.49v46.771v0.184c-2.922,0.365-5.846,1.463-8.039,2.193
		v-3.289c0-6.578-3.472-12.607-9.135-15.713c-5.665-3.291-12.424-3.107-18.088,0.182c-22.108,13.156-26.858,43.85-26.858,54.447
		v0.732c0,6.941,0,16.625,5.847,22.473c3.289,3.289,7.674,4.934,13.52,4.934c6.395,0,13.156-0.732,20.099-2.012
		c8.586-1.645,14.616-9.135,14.616-17.904v-38.004c2.192-0.914,7.308-2.924,10.779-2.924c3.472,0,8.405,1.828,10.78,2.924v38.186
		c0,8.771,6.212,16.264,14.617,17.906c6.942,1.279,13.703,2.012,20.097,2.012c5.664,0,10.232-1.645,13.521-4.936
		C251.771,233.15,251.771,223.65,251.771,216.525z M170.464,224.197c0,6.031-4.02,11.328-10.049,12.426
		c-6.578,1.279-12.972,1.826-19.002,1.826c-4.202,0-7.491-1.096-9.683-3.287c-4.386-4.387-4.386-12.607-4.386-18.637v-0.732
		c0-9.865,4.386-38.004,24.118-49.697c2.009-1.277,4.201-1.826,6.395-1.826c2.191,0,4.201,0.549,6.211,1.645
		c4.021,2.193,6.395,6.396,6.395,10.963V224.197L170.464,224.197z M246.107,216.525c0,6.029,0.182,14.25-4.203,18.637
		c-2.193,2.191-5.298,3.287-9.683,3.287c-6.03,0-12.425-0.547-19.002-1.826c-5.847-1.098-10.232-6.395-10.232-12.426v-47.32
		c0-4.57,2.375-8.77,6.395-11.145c1.827-1.096,4.019-1.646,6.028-1.646c2.01,0,4.02,0.551,5.847,1.463
		c20.464,11.51,24.849,40.195,24.849,50.244V216.525L246.107,216.525z"/>
</g>
</svg>
